{"title":"The.Dark.Knight.Rises.2012.TS.XviD-INSPiRAL","uid":7482467,"size":2331593882,"categoryP":"video","categoryS":"movies","magnet":"?xt=urn:btih:55cbb486eba7bee80f396ed753d6da63478a91cd&amp;dn=The.Dark.Knight.Rises.2012.TS.XviD-INSPiRAL&amp;tr=udp%3A%2F%2Ftracker.openbittorrent.com%3A80&amp;tr=udp%3A%2F%2Fopen.demonii.com%3A1337&amp;tr=udp%3A%2F%2Ftracker.coppersurfer.tk%3A6969&amp;tr=udp%3A%2F%2Fexodus.desync.com%3A6969","seeders":0,"leechers":1,"uploader":"maximersk","files":4,"time":1343434188,"description":"The.Dark.Knight.Rises.2012.TS.XviD-INSPiRAL\n\n\n\n\n\nEight years after the events of The Dark Knight, the terrorist leader Bane arrives in Gotham City, pushing it and its police force to their limits, forcing its former hero Batman to resurface after taking the fall for Harvey Dent's crimes. \n\nVideo\nID : 0\nFormat : MPEG-4 Visual\nFormat profile : Advanced Simple@L5\nFormat settings, BVOP : 2\nFormat settings, QPel : No\nFormat settings, GMC : No warppoints\nFormat settings, Matrix : Default (MPEG)\nMuxing mode : Packed bitstream\nCodec ID : XVID\nCodec ID/Hint : XviD\nDuration : 2h 36mn\nBit rate : 1 821 Kbps\nWidth : 720 pixels\nHeight : 288 pixels\nDisplay aspect ratio : 2.500\nFrame rate : 29.970 fps\nColor space : YUV\nChroma subsampling : 4:2:0\nBit depth : 8 bits\nScan type : Progressive\nCompression mode : Lossy\nBits/(Pixel*Frame) : 0.293\nStream size : 1.99 GiB (93%)\nWriting library : XviD 64\n\nAudio\nID : 1\nFormat : MPEG Audio\nFormat version : Version 1\nFormat profile : Layer 3\nMode : Joint stereo\nMode extension : MS Stereo\nCodec ID : 55\nCodec ID/Hint : MP3\nDuration : 2h 36mn\nBit rate mode : Constant\nBit rate : 128 Kbps\nChannel(s) : 2 channels\nSampling rate : 44.1 KHz\nCompression mode : Lossy\nStream size : 143 MiB (7%)\nAlignment : Split accross interleaves\nInterleave, duration : 33 ms (1.00 video frame)\nInterleave, preload duration : 500 ms\n\nSOURCES:\n\nVIDEO - 26k source file ( cheers guys )\nAUDIO - tooth fairy ( thanks to special friends )\nSUBS - None Add\n\nNOTES:\n\nOk we held fire until we were kindly given the raw files for both video and audio ....and now we can get the best\nresult we can and saves re-encoding the other xvid releases.\nVideo need to be straightened up a touch and was so grainy it was untrue ...colours were whacked aswell.\nBasically it need some TLC,so fixed it up the best we could.\nAudio was nice but had lot of noise to it so had too clean the audio by changing the EQ bands and also used a hiss removal\nfilter aswell.\nSyncing was a pita as the audio wouldn't stretch right like normal but go there in the end by stretching and restretching.\n\nAnyway ....enjoy until better sors come out\n\n\n\n\n\n\n\n","torrent":{"xt":"urn:btih:55cbb486eba7bee80f396ed753d6da63478a91cd","amp;dn":"The.Dark.Knight.Rises.2012.TS.XviD-INSPiRAL","amp;tr":["udp%3A%2F%2Ftracker.openbittorrent.com%3A80","udp%3A%2F%2Fopen.demonii.com%3A1337","udp%3A%2F%2Ftracker.coppersurfer.tk%3A6969","udp%3A%2F%2Fexodus.desync.com%3A6969"],"infoHash":"55cbb486eba7bee80f396ed753d6da63478a91cd","infoHashBuffer":{"type":"Buffer","data":[85,203,180,134,235,167,190,232,15,57,110,215,83,214,218,99,71,138,145,205]},"announce":[],"urlList":[]}}